<?xml version="1.0" encoding="UTF-8"?>
<svg xmlns="http://www.w3.org/2000/svg" xmlns:xlink="http://www.w3.org/1999/xlink" width="425.2pt" height="141.8pt" viewBox="0 0 425.2 141.8" version="1.1">
<defs>
<clipPath id="clip1">
  <path d="M 0 0 L 425.199219 0 L 425.199219 141.800781 L 0 141.800781 Z M 0 0 "/>
</clipPath>
<clipPath id="clip2">
  <path d="M 330 0 L 425.199219 0 L 425.199219 141.800781 L 330 141.800781 Z M 330 0 "/>
</clipPath>
</defs>
<g id="surface1">
<g clip-path="url(#clip1)" clip-rule="nonzero">
<path style=" stroke:none;fill-rule:evenodd;fill:rgb(0%,17.259216%,41.575623%);fill-opacity:1;" d="M 0.0390625 141.726563 L 425.234375 141.726563 L 425.234375 0 L 0.0390625 0 Z M 0.0390625 141.726563 "/>
</g>
<path style=" stroke:none;fill-rule:evenodd;fill:rgb(100%,100%,100%);fill-opacity:1;" d="M 306.296875 82.15625 L 308.460938 72.492188 C 309.136719 72.535156 310.101563 72.65625 311.207031 72.65625 C 321.996094 72.660156 325.75 65.726563 325.75 60.988281 C 325.753906 55.828125 322.171875 52.882813 314.363281 52.84375 C 311.167969 52.835938 308.398438 52.941406 305.777344 53.558594 L 299.429688 82.15625 Z M 311.675781 57.902344 C 312.226563 57.820313 313.199219 57.746094 314.472656 57.746094 C 316.984375 57.746094 319.066406 58.492188 319.066406 61.507813 C 319.066406 64.578125 316.710938 67.554688 312.1875 67.566406 C 311.042969 67.585938 310.3125 67.484375 309.589844 67.359375 Z M 285.261719 70.03125 C 285.261719 65.410156 288.269531 58.527344 295.121094 58.527344 C 296.910156 58.527344 299.429688 59.066406 301.183594 60.199219 L 303.246094 55.105469 C 300.980469 53.867188 297.507813 52.902344 294.269531 52.902344 C 283.527344 52.902344 277.976563 61.726563 277.976563 70.398438 C 277.976563 79.667969 284.195313 82.789063 290.539063 82.789063 C 293.632813 82.789063 296 82.101563 297.480469 81.273438 L 298.859375 75.066406 C 296.160156 77.046875 294.160156 77.367188 292.324219 77.367188 C 287.867188 77.367188 285.261719 74.488281 285.261719 70.03125 Z M 259.835938 69.320313 L 262.027344 69.320313 C 265.144531 69.320313 267.714844 70.179688 267.648438 73.113281 C 267.585938 76.390625 264.257813 77.746094 260.632813 77.746094 C 259.65625 77.746094 258.769531 77.746094 257.988281 77.65625 Z M 274.703125 73.285156 C 274.703125 68.9375 271.679688 67.039063 269.253906 66.871094 C 272.3125 66.328125 276.394531 64.039063 276.394531 59.796875 C 276.394531 55.269531 271.929688 52.84375 265.183594 52.84375 C 262.128906 52.84375 259.144531 53.117188 256.480469 53.558594 L 250.132813 82.15625 C 252.085938 82.453125 254.90625 82.683594 258.4375 82.683594 C 271.074219 82.679688 274.703125 77.644531 274.703125 73.285156 Z M 262.355469 57.914063 C 262.878906 57.824219 264.097656 57.746094 265.261719 57.746094 C 267.8125 57.746094 269.597656 58.648438 269.554688 60.757813 C 269.5 63.285156 266.960938 64.738281 263.296875 64.738281 L 260.886719 64.734375 Z M 262.355469 57.914063 "/>
<path style=" stroke:none;fill-rule:evenodd;fill:rgb(91.014099%,27.050781%,7.054138%);fill-opacity:1;" d="M 330.21875 61.132813 L 337.722656 68.652344 L 324.203125 82.164063 L 327.207031 85.179688 L 343.734375 68.652344 L 333.222656 58.132813 Z M 230.796875 56.621094 L 242.820313 68.652344 L 224.789063 86.671875 L 227.796875 89.683594 L 248.835938 68.652344 L 233.796875 53.613281 Z M 230.796875 56.621094 "/>
<path style=" stroke:none;fill-rule:evenodd;fill:rgb(100%,100%,100%);fill-opacity:1;" d="M 226.277344 61.132813 L 233.808594 68.652344 L 220.273438 82.164063 L 223.28125 85.179688 L 239.8125 68.652344 L 229.285156 58.132813 Z M 334.128906 56.566406 L 346.136719 68.582031 L 328.109375 86.617188 L 331.121094 89.613281 L 352.148438 68.582031 L 337.121094 53.558594 Z M 334.128906 56.566406 "/>
<path style=" stroke:none;fill-rule:evenodd;fill:rgb(100%,100%,100%);fill-opacity:1;" d="M 73.035156 68.203125 C 70.847656 68.183594 68.933594 68.960938 67.492188 70.398438 C 65.917969 71.964844 65.015625 74.195313 65.015625 76.523438 C 65.015625 80.015625 67.523438 82.476563 71.109375 82.519531 L 71.089844 82.519531 C 72.6875 82.53125 74.164063 82.085938 75.109375 81.589844 L 76.042969 78.351563 C 75.238281 78.996094 73.84375 79.773438 71.820313 79.773438 C 70.417969 79.773438 68.710938 78.695313 68.730469 76.246094 L 68.730469 76.261719 C 68.742188 74.132813 70.238281 70.867188 73.121094 70.878906 C 74.460938 70.894531 75.59375 71.335938 76.546875 72.402344 L 77.449219 69.554688 C 76.261719 68.652344 74.847656 68.214844 73.035156 68.203125 Z M 202.550781 82.53125 C 200.691406 82.53125 199.261719 82.03125 198.289063 81.078125 C 197.335938 80.132813 196.859375 78.769531 196.859375 76.996094 C 196.859375 74.96875 197.550781 72.105469 199.496094 70.171875 C 200.8125 68.851563 202.492188 68.183594 204.5 68.183594 C 206.300781 68.183594 207.785156 68.710938 208.792969 69.710938 C 209.761719 70.664063 210.25 72.03125 210.25 73.652344 C 210.25 76.71875 208.652344 82.53125 202.550781 82.53125 Z M 204.5 70.738281 C 201.394531 70.714844 200.496094 75.289063 200.496094 76.996094 C 200.507813 78.796875 201.179688 79.972656 202.550781 79.964844 C 203.476563 79.964844 204.191406 79.5625 204.746094 79.007813 C 206.089844 77.632813 206.605469 74.648438 206.613281 73.652344 C 206.636719 71.539063 205.746094 70.757813 204.5 70.738281 Z M 197.675781 68.277344 C 196.796875 68.367188 195.304688 68.429688 194.738281 68.429688 L 195.894531 63.296875 C 194.429688 63.398438 193.242188 63.410156 192.210938 63.410156 L 188.9375 77.929688 L 188.941406 77.929688 C 188.820313 78.492188 188.761719 78.996094 188.773438 79.535156 C 188.792969 80.363281 189.046875 82.53125 192.234375 82.519531 C 193.769531 82.519531 194.636719 82.027344 195.167969 81.710938 L 195.789063 78.886719 C 195.035156 79.339844 194.09375 79.964844 193.027344 79.945313 C 192.402344 79.9375 192.28125 79.355469 192.421875 78.714844 L 192.421875 78.695313 L 194.179688 70.960938 C 194.910156 70.953125 196.265625 70.894531 197.136719 70.839844 Z M 185.847656 63.414063 C 186.902344 63.414063 188.007813 63.398438 189.558594 63.292969 L 188.851563 66.371094 C 187.316406 66.480469 186.238281 66.480469 185.164063 66.480469 Z M 184.738281 68.40625 C 186.003906 68.414063 186.949219 68.382813 188.425781 68.28125 L 185.292969 82.199219 C 184.261719 82.199219 183.105469 82.207031 181.597656 82.308594 Z M 27.917969 70.820313 L 24.714844 70.820313 L 25.863281 65.832031 C 26.574219 65.773438 28.644531 65.726563 29.476563 65.738281 C 31.789063 65.742188 32.316406 66.703125 32.3125 67.707031 C 32.3125 69.574219 30.605469 70.820313 27.917969 70.820313 Z M 26.074219 79.726563 C 25.441406 79.714844 23.4375 79.710938 22.726563 79.660156 L 24.101563 73.585938 L 27.621094 73.582031 C 30.097656 73.582031 31.03125 74.6875 31.007813 76.140625 C 30.988281 78.984375 28.269531 79.726563 26.074219 79.726563 Z M 36.117188 67.671875 C 36.117188 64.914063 33.972656 63.113281 29.625 63.089844 C 27.636719 63.085938 24.371094 63.207031 22.734375 63.453125 L 18.515625 82.179688 C 19.972656 82.40625 24.078125 82.53125 25.652344 82.53125 C 32.402344 82.53125 34.792969 79.207031 34.800781 76.363281 C 34.800781 74.71875 33.730469 73.054688 31.902344 72.402344 C 34.015625 71.761719 36.117188 69.902344 36.117188 67.671875 Z M 63.039063 69.554688 C 62.328125 68.671875 61.210938 68.183594 59.6875 68.183594 C 57.933594 68.203125 56.855469 68.828125 56.054688 69.429688 L 56.320313 68.296875 C 54.792969 68.40625 53.75 68.414063 52.617188 68.40625 L 49.449219 82.308594 C 50.929688 82.21875 52.027344 82.199219 53.140625 82.199219 L 55.460938 72.082031 C 56.148438 71.519531 56.953125 71.042969 58.335938 71.042969 C 59.59375 71.042969 60.386719 71.976563 60.0625 73.433594 L 58.035156 82.308594 C 59.515625 82.21875 60.582031 82.210938 61.734375 82.207031 L 63.636719 73.808594 C 64.050781 72.03125 63.847656 70.558594 63.039063 69.554688 Z M 82.996094 82.53125 C 81.136719 82.53125 79.699219 82.03125 78.734375 81.078125 C 77.785156 80.132813 77.308594 78.769531 77.308594 76.996094 C 77.308594 74.96875 78.003906 72.105469 79.941406 70.171875 C 81.261719 68.851563 82.953125 68.183594 84.949219 68.183594 C 86.761719 68.183594 88.242188 68.710938 89.257813 69.710938 C 90.207031 70.664063 90.710938 72.03125 90.710938 73.652344 C 90.710938 76.71875 89.101563 82.53125 82.996094 82.53125 Z M 84.949219 70.738281 C 81.851563 70.714844 80.953125 75.289063 80.964844 76.996094 C 80.964844 78.796875 81.640625 79.972656 82.996094 79.964844 C 83.929688 79.964844 84.644531 79.5625 85.183594 79.007813 C 86.558594 77.632813 87.058594 74.648438 87.066406 73.652344 C 87.09375 71.539063 86.1875 70.757813 84.949219 70.738281 Z M 98.480469 76.707031 C 98.480469 76.121094 98.8125 70.648438 104.492188 70.648438 C 104.757813 70.648438 105.132813 70.703125 105.4375 70.757813 C 105.4375 70.757813 103.589844 78.941406 103.585938 78.9375 C 102.914063 79.660156 102.011719 79.9375 101.058594 79.941406 C 99.507813 79.949219 98.492188 78.589844 98.480469 76.707031 Z M 110.769531 63.289063 C 109.285156 63.390625 108.191406 63.414063 107.070313 63.414063 L 106 68.234375 C 105.457031 68.132813 104.972656 68.082031 104.519531 68.082031 C 101.863281 68.082031 99.535156 68.871094 97.78125 70.355469 C 95.398438 72.371094 94.75 75.46875 94.75 76.960938 C 94.75 80.226563 96.910156 82.519531 100 82.519531 C 101.503906 82.53125 102.515625 81.914063 103.027344 81.332031 L 102.800781 82.335938 C 104.363281 82.242188 105.238281 82.21875 106.492188 82.21875 Z M 153.972656 69.007813 C 153.695313 68.539063 152.972656 68.183594 152.03125 68.203125 C 150.753906 68.203125 149.851563 69.007813 149.386719 69.621094 L 149.710938 68.28125 C 148.136719 68.386719 147.230469 68.398438 146 68.386719 L 142.835938 82.308594 C 144.304688 82.21875 145.402344 82.21875 146.535156 82.199219 L 148.804688 72.140625 C 149.386719 71.570313 150.003906 71.230469 150.867188 71.230469 C 152.003906 71.230469 152.457031 71.570313 152.835938 72.042969 Z M 170.953125 76.707031 C 170.953125 76.121094 171.289063 70.648438 176.964844 70.648438 C 177.230469 70.648438 177.601563 70.703125 177.902344 70.757813 C 177.902344 70.757813 176.0625 78.941406 176.050781 78.9375 C 175.386719 79.660156 174.484375 79.9375 173.539063 79.941406 C 171.972656 79.949219 170.960938 78.589844 170.953125 76.707031 Z M 183.25 63.289063 C 181.75 63.390625 180.660156 63.414063 179.546875 63.414063 L 178.464844 68.234375 C 177.941406 68.132813 177.433594 68.082031 177 68.082031 C 174.332031 68.082031 171.996094 68.871094 170.25 70.355469 C 167.863281 72.371094 167.238281 75.46875 167.238281 76.960938 C 167.238281 80.226563 169.386719 82.519531 172.46875 82.519531 C 173.976563 82.53125 174.988281 81.914063 175.511719 81.332031 L 175.285156 82.335938 C 176.824219 82.242188 177.714844 82.21875 178.972656 82.21875 Z M 166.835938 63.085938 L 162.992188 67.148438 C 162.191406 67.117188 160.742188 67.089844 160.054688 67.121094 C 160.929688 65.738281 161.984375 63.804688 162.382813 63.085938 C 163.839844 63.148438 166.101563 63.113281 166.835938 63.085938 Z M 160.371094 70.648438 C 162.109375 70.660156 162.742188 71.554688 162.742188 72.839844 C 162.742188 73.042969 162.722656 73.296875 162.675781 73.476563 L 157.136719 73.476563 C 157.652344 72.007813 158.929688 70.628906 160.371094 70.648438 Z M 160.65625 68.183594 C 158.597656 68.167969 156.863281 68.871094 155.519531 70.21875 C 153.527344 72.203125 152.984375 74.933594 152.984375 76.828125 C 152.972656 79.964844 154.746094 82.53125 159.148438 82.53125 C 161.1875 82.519531 162.585938 82.207031 164.398438 81.308594 L 165.25 78.289063 C 163.511719 79.234375 161.570313 79.835938 159.710938 79.808594 C 157.136719 79.78125 156.550781 78.667969 156.558594 76.765625 C 156.558594 76.539063 156.578125 76.320313 156.605469 76.097656 L 165.800781 76.097656 C 165.980469 75.421875 166.171875 73.996094 166.171875 73.253906 C 166.132813 70.035156 163.945313 68.203125 160.65625 68.183594 Z M 117.175781 70.648438 C 118.910156 70.660156 119.542969 71.554688 119.542969 72.839844 C 119.542969 73.042969 119.523438 73.296875 119.480469 73.476563 L 113.933594 73.476563 C 114.457031 72.007813 115.726563 70.628906 117.175781 70.648438 Z M 117.460938 68.183594 C 115.386719 68.167969 113.652344 68.871094 112.316406 70.21875 C 110.328125 72.203125 109.792969 74.933594 109.785156 76.828125 C 109.785156 79.964844 111.542969 82.53125 115.9375 82.53125 C 117.984375 82.519531 119.402344 82.207031 121.191406 81.308594 L 122.042969 78.289063 C 120.308594 79.234375 118.375 79.835938 116.519531 79.808594 C 113.933594 79.78125 113.339844 78.667969 113.359375 76.765625 C 113.359375 76.539063 113.378906 76.320313 113.402344 76.097656 L 122.59375 76.097656 C 122.777344 75.421875 122.964844 73.996094 122.964844 73.253906 C 122.925781 70.035156 120.730469 68.203125 117.460938 68.183594 Z M 44.8125 76.03125 C 44.414063 76.003906 44.027344 75.957031 43.695313 75.957031 C 41.890625 75.972656 41.035156 76.226563 40.480469 76.644531 C 40.101563 76.921875 39.734375 77.417969 39.734375 78.242188 C 39.75 79.453125 40.792969 79.820313 41.816406 79.835938 C 42.53125 79.835938 43.402344 79.65625 44.171875 78.839844 Z M 49.195313 72.359375 C 49.195313 72.839844 49.128906 73.164063 49.054688 73.554688 L 47.082031 82.21875 C 46.0625 82.199219 44.871094 82.21875 43.375 82.308594 L 43.617188 81.308594 C 43.195313 81.785156 42.242188 82.53125 40.679688 82.519531 C 38.8125 82.496094 36.203125 81.46875 36.203125 78.644531 C 36.191406 77.363281 36.636719 75.90625 38 74.957031 C 39.199219 74.109375 40.660156 73.476563 43.722656 73.476563 C 44.320313 73.476563 44.8125 73.511719 45.386719 73.585938 L 45.535156 72.980469 C 45.644531 72.316406 45.570313 71.917969 45.359375 71.652344 C 44.902344 71.101563 44.097656 70.894531 42.902344 70.882813 C 41.570313 70.871094 40.285156 71.246094 38.449219 72.398438 L 38.621094 69.296875 C 40.355469 68.453125 41.628906 68.144531 43.394531 68.144531 C 46.925781 68.132813 49.21875 69.578125 49.195313 72.359375 Z M 131.507813 74.535156 C 131.511719 70.46875 134.4375 66.136719 138.40625 66.167969 C 140.886719 66.207031 142.53125 67.363281 143.578125 68.324219 L 144.796875 65.277344 C 143.5 64.316406 141.359375 63.113281 138.304688 63.085938 C 130.371094 63.027344 127.558594 70.390625 127.546875 74.582031 C 127.535156 78.285156 129.691406 82.605469 135.71875 82.621094 C 137.742188 82.621094 139.6875 82.164063 141.398438 81.183594 C 141.398438 81.214844 142.261719 77.363281 142.261719 77.363281 C 141.082031 78.234375 138.890625 79.535156 136.226563 79.527344 C 133.269531 79.523438 131.488281 77.371094 131.507813 74.535156 Z M 131.507813 74.535156 "/>
<g clip-path="url(#clip2)" clip-rule="nonzero">
<path style=" stroke:none;fill-rule:evenodd;fill:rgb(91.014099%,27.050781%,7.054138%);fill-opacity:1;" d="M 340.183594 -0.00390625 L 407.28125 65.664063 L 330.863281 141.730469 L 425.234375 141.730469 L 425.234375 -0.00390625 Z M 340.183594 -0.00390625 "/>
</g>
</g>
</svg>
